<?xml version="1.0" encoding="UTF-8" standalone="no"?>
<!-- Created with Inkscape (http://www.inkscape.org/) -->

<svg
   width="99.437424mm"
   height="17.505344mm"
   viewBox="0 0 99.437424 17.505344"
   version="1.1"
   id="svg1"
   sodipodi:docname="logo.svg"
   inkscape:version="1.4 (86a8ad7, 2024-10-11)"
   xmlns:inkscape="http://www.inkscape.org/namespaces/inkscape"
   xmlns:sodipodi="http://sodipodi.sourceforge.net/DTD/sodipodi-0.dtd"
   xmlns="http://www.w3.org/2000/svg"
   xmlns:svg="http://www.w3.org/2000/svg">
  <sodipodi:namedview
     id="namedview1"
     pagecolor="#ffffff"
     bordercolor="#000000"
     borderopacity="0.25"
     inkscape:showpageshadow="2"
     inkscape:pageopacity="0.0"
     inkscape:pagecheckerboard="0"
     inkscape:deskcolor="#d1d1d1"
     inkscape:document-units="mm"
     inkscape:zoom="1.3309343"
     inkscape:cx="263.34883"
     inkscape:cy="-149.14335"
     inkscape:window-width="1920"
     inkscape:window-height="986"
     inkscape:window-x="-11"
     inkscape:window-y="-11"
     inkscape:window-maximized="1"
     inkscape:current-layer="layer1" />
  <defs
     id="defs1" />
  <g
     inkscape:label="Layer 1"
     inkscape:groupmode="layer"
     id="layer1"
     transform="translate(-20.040132,-93.831877)">
    <path
       d="m 38.291432,95.71413 h -2.286 l -0.6096,1.4224 c -0.8128,-0.8128 -1.6256,-1.3208 -2.4892,-1.6764 -1.3716,-0.508 -3.81,-0.5588 -5.4864,0.3556 -3.4544,1.7272 -6.096,6.1976 -6.1976,9.6012 0,2.2352 1.3208,4.1656 3.6068,4.5212 2.7432,0.4064 5.2832,-1.0668 7.0612,-3.7592 0.1016,1.778 1.0668,3.6576 3.048,3.81 4.0132,0.2032 6.604,-7.366 7.874,-10.414 h -0.8636 c -1.1176,2.6924 -3.5052,9.8044 -6.9088,9.6012 -1.4224,-0.3048 -1.3716,-2.3876 -0.762,-4.572 0.9652,-3.1496 2.6924,-5.9944 4.0132,-8.89 z m -3.3528,2.2352 c -0.9652,1.9812 -1.9304,3.8608 -2.6416,5.9944 -1.2192,2.4384 -4.0132,6.2484 -7.1628,5.0292 -1.2192,-0.508 -1.8796,-1.8288 -1.6764,-3.4544 0.3556,-3.5052 2.54,-7.4168 5.6896,-8.9408 1.1176,-0.508 2.3368,-0.762 3.5052,-0.3048 0.762,0.3048 1.524,0.8636 2.286,1.6764 z"
       id="text1"
       style="font-size:50.8px;font-family:Olivia;-inkscape-font-specification:Olivia;fill:none;stroke:#0083ff;stroke-width:2.365;stroke-dasharray:none;stroke-opacity:1"
       aria-label="a" />
    <path
       d="m 45.488309,106.62583 c -0.921748,0 -1.508315,0.61968 -1.508315,1.46067 0,0.84099 0.586567,1.59345 1.508315,1.59345 0.796055,0 1.550212,-0.75246 1.550212,-1.59345 0,-0.84099 -0.754157,-1.46067 -1.550212,-1.46067 z"
       id="text2"
       style="font-size:50.8px;font-family:Olivia;-inkscape-font-specification:Olivia;white-space:pre;inline-size:25.9735;fill:none;stroke:#0083ff;stroke-width:3.0221;stroke-dasharray:none;stroke-opacity:1"
       aria-label="." />
    <path
       d="m 67.304656,95.62397 h -2.4384 c -1.3208,2.8956 -2.946399,5.5372 -3.860799,8.636 v 0.0508 c -1.27,2.5908 -2.8956,5.08 -5.0292,4.9276 -1.4732,-0.3556 -1.4224,-2.54 -0.6604,-4.7752 0.9652,-2.9972 2.6416,-5.9436 4.064,-8.8392 h -2.3368 c -1.4224,2.8956 -3.048,5.5372 -3.9624,8.636 -0.762,1.9812 0.1016,5.588 2.794,5.7404 1.9812,0.1016 3.6068,-1.524 4.8768,-3.556 0.1524,1.7272 1.1176,3.4544 3.047999,3.556 4.1656,0.2032 6.7056,-7.4168 8.0264,-10.4648 h -0.8636 c -1.1176,2.6416 -3.5052,9.906 -7.0612,9.7028 -1.523999,-0.3556 -1.422399,-2.54 -0.6604,-4.7752 0.9652,-2.9972 2.6416,-5.9436 4.064,-8.8392 z"
       id="text3"
       style="font-size:50.8px;font-family:Olivia;-inkscape-font-specification:Olivia;fill:none;stroke:#0083ff;stroke-width:2.365;stroke-dasharray:none;stroke-opacity:1"
       aria-label="u" />
    <path
       d="m 79.102272,99.433242 c -1.3208,2.031998 -5.6896,2.997198 -7.7216,2.946398 1.016,-2.438398 2.9972,-4.825998 5.1816,-5.943598 2.1844,-1.0668 4.0132,0.6096 2.54,2.9972 z m -7.9248,3.505198 c 2.5908,0.2032 7.7216,-1.0668 8.8392,-3.860798 1.524,-3.556 -2.4892,-4.7752 -5.2832,-3.4036 -3.3528,1.7272 -6.1976,6.349998 -6.35,9.753598 0,2.54 1.6764,4.5212 4.572,4.572 5.7912,0.2032 9.0932,-5.5372 10.922,-10.413998 h -0.8636 c -1.8796,4.267198 -4.7752,9.855198 -9.8044,9.499598 -0.9652,-0.0508 -1.7272,-0.5588 -2.1844,-1.3716 -0.8636,-1.4224 -0.254,-3.6576 0.1524,-4.7752 z"
       id="text4"
       style="font-size:50.8px;font-family:Olivia;-inkscape-font-specification:Olivia;fill:none;stroke:#0083ff;stroke-width:2.365;stroke-dasharray:none;stroke-opacity:1"
       aria-label="e" />
    <path
       d="m 94.696744,99.028154 c -2.286,5.638796 -2.54,6.502396 -2.6416,7.315196 -0.2032,1.8796 0.4572,3.7084 3.4036,3.6576 4.1148,0.2032 6.603996,-7.5184 7.924796,-10.413996 h -0.8636 c -1.1176,2.539996 -3.505196,9.753596 -6.959596,9.550396 -1.3208,-0.1016 -1.4224,-1.7272 -1.2192,-2.794 0.4572,-2.3368 1.6764,-4.318 2.3368,-6.451596 0.762,-2.3876 0.6096,-4.826 -2.1844,-4.7244 -2.1844,0.1524 -3.8608,2.3368 -5.334,4.4196 0.4572,-2.2352 0.5588,-4.9784 -2.133599,-4.318 -1.9304,0.4572 -3.4036,2.794 -4.064,4.318 h 0.8636 c 0.508,-1.016 1.8796,-3.556 3.4544,-2.9972 0.8636,0.4572 -0.254,3.0988 -0.9144,4.571996 l -4.064,8.8392 h 2.4384 l 2.1844,-4.826 c 1.879599,-3.8608 5.079999,-9.194796 7.416799,-9.093196 1.016,0.1016 0.8636,1.4224 0.3556,2.9464 z"
       id="text5"
       style="font-size:50.8px;font-family:Olivia;-inkscape-font-specification:Olivia;fill:none;stroke:#0083ff;stroke-width:2.765;stroke-dasharray:none;stroke-opacity:1"
       aria-label="n" />
    <path
       d="m 117.76431,99.577387 h -0.8636 c -0.4572,1.473203 -1.1176,2.895603 -1.6764,4.114803 -1.0668,2.1336 -3.302,3.6068 -5.3848,1.8796 2.4384,-3.7084 3.1496,-8.686803 0.1016,-10.160003 -4.1148,-1.4224 -7.2644,2.4892 -8.8392,5.181603 -1.422407,2.4384 -3.200407,6.9596 0,8.8392 2.9972,1.5748 6.1468,-0.3048 8.2804,-3.1496 2.54,2.0828 5.2324,0.4572 6.604,-2.1844 0.6604,-1.3208 1.2192,-3.048 1.778,-4.521203 z m -8.89,1.778003 c -0.5588,0 -1.016,0.8636 -1.016,1.8796 0,0.4572 0.0508,0.8636 0.2032,1.2192 h -0.0508 c 0,0 0.1016,0.1016 0.1016,0.2032 0.1016,0.254 0.3048,0.5588 0.508,0.8636 -1.6256,2.4892 -3.9624,4.4704 -6.2484,3.6068 -2.438407,-1.3716 -0.254,-6.096 0.8636,-8.128 1.524,-3.200403 7.5184,-7.721603 7.5184,-1.625603 0,1.016003 -0.3048,2.336803 -0.8636,3.708403 -0.0508,-0.9144 -0.508,-1.7272 -1.016,-1.7272 z"
       id="text6"
       style="font-size:50.8px;font-family:Olivia;-inkscape-font-specification:Olivia;fill:none;stroke:#0083ff;stroke-width:2.365;stroke-dasharray:none;stroke-opacity:1"
       aria-label="o" />
  </g>
</svg>
